<svg width="21" height="22" viewBox="0 0 21 22" fill="none" xmlns="http://www.w3.org/2000/svg">
<path d="M5.56982 7.34677V7.34417C6.79212 5.41711 8.97014 4.35085 11.3991 4.49908C13.8164 4.64472 15.8423 5.94893 16.8292 7.99043H20.0839V4.78255C18.0762 1.85945 14.7084 0 11.0337 0C11.0181 0 11.0025 0 10.9869 0C6.11986 0 1.78721 3.25989 0.445291 7.93451L0.429688 7.99043H5.19013C5.30716 7.76547 5.43329 7.54832 5.56982 7.34677Z" fill="#DD303E"/>
<path d="M20.0838 10.1953H9.80616V13.9181H16.1907V15.1235C14.5705 17.6513 11.7488 18.2781 9.40306 17.6552C6.60999 16.9114 3.89884 14.2835 4.54639 10.2681L4.5594 10.1953H0.073318L0.0668164 10.2343C-0.280367 13.2667 0.736477 16.3549 2.85989 18.7085C4.9768 21.0555 7.94931 22.0347 11.0076 21.997C11.0467 21.997 11.0857 21.997 11.1247 21.997C13.6655 21.997 15.2116 20.5614 16.1907 19.6889V20.9736H20.0838V10.1953Z" fill="white"/>
</svg>
